<?xml version="1.0" encoding="utf-8"?>
<!-- Generator: Adobe Illustrator 16.0.0, SVG Export Plug-In . SVG Version: 6.00 Build 0)  -->
<!DOCTYPE svg PUBLIC "-//W3C//DTD SVG 1.1//EN" "http://www.w3.org/Graphics/SVG/1.1/DTD/svg11.dtd">
<svg version="1.1" xmlns="http://www.w3.org/2000/svg" xmlns:xlink="http://www.w3.org/1999/xlink" x="0px" y="0px" width="150px"
	 height="150px" viewBox="46.15 12.5 150 150" enable-background="new 46.15 12.5 150 150" xml:space="preserve">
<g id="Layer_1">
	<circle fill="#FFFFFF" cx="85.009" cy="127.642" r="3.806"/>
	<circle fill="#FFFFFF" cx="92.189" cy="134.821" r="3.806"/>
	<circle fill="#FFFFFF" cx="92.189" cy="120.376" r="3.806"/>
	<path fill="#FFFFFF" d="M102.223,124.873c1.471,1.471,1.471,3.894,0,5.45c-1.47,1.471-3.892,1.471-5.45,0
		c-1.47-1.471-1.47-3.893,0-5.45C98.244,123.403,100.666,123.403,102.223,124.873z"/>
	<g>
		<path fill="none" d="M169.086,39.24c-2.334-2.336-6.228-2.336-8.563,0l-21.971,21.97l20.326,20.328l21.972-21.97
			c2.337-2.335,2.337-6.229,0-8.563L169.086,39.24z"/>
		<path fill="none" d="M89.42,95.205l1.125-1.125c-0.046-0.689-0.022-1.383,0.035-2.076H89.42V95.205z"/>
		<path fill="#ED8222" d="M90.581,92.004c0.265-3.223,1.625-6.418,4.116-8.91l3.287-3.287H89.42v-13.84h-12.11v13.84H63.385v12.197
			h13.926v13.841h1.47l10.64-10.64L90.581,92.004z"/>
		<path fill="none" d="M73.159,126.69c-2.335,2.335-2.335,6.229,0,8.563l11.764,11.765c2.336,2.334,6.228,2.334,8.563,0
			l21.971-21.973L95.13,104.719L73.159,126.69z"/>
		<path fill="none" d="M129.21,73.407c-1.557-1.471-3.979-1.471-5.449,0L106.548,90.62c-1.471,1.557-1.471,3.979,0,5.449
			l17.213,17.214c1.557,1.47,3.979,1.47,5.449,0l17.213-17.214c1.471-1.558,1.471-3.979,0-5.449L129.21,73.407z"/>
		<path fill="none" stroke="#92BFD4" stroke-width="4" stroke-miterlimit="10" d="M188.548,43.91l-12.542-12.542
			c-6.314-6.229-16.521-6.229-22.75,0l-25.949,25.95c-3.979-0.259-7.958,1.125-10.985,4.152L97.984,79.807l-7.403,12.197
			c-0.057,0.693-1.161,3.201-1.161,3.201l-10.64,10.64l-14.185,14.184c-6.315,6.315-6.315,16.436,0,22.75l12.542,12.543
			c6.315,6.315,16.435,6.315,22.75,0l25.95-25.949c3.979,0.259,7.957-1.125,10.985-4.153l21.624-21.624
			c3.027-3.028,4.412-7.007,4.153-10.985l25.948-25.951C194.865,60.345,194.865,50.224,188.548,43.91z M93.486,147.019
			c-2.336,2.334-6.228,2.334-8.563,0l-11.764-11.765c-2.335-2.335-2.335-6.229,0-8.563l21.971-21.972l20.327,20.327L93.486,147.019z
			 M146.423,96.069l-17.213,17.214c-1.471,1.47-3.893,1.47-5.449,0l-17.213-17.214c-1.471-1.471-1.471-3.893,0-5.449l17.213-17.213
			c1.471-1.471,3.893-1.471,5.449,0l17.213,17.213C147.894,92.091,147.894,94.512,146.423,96.069z M180.85,59.567l-21.972,21.97
			l-20.326-20.328l21.971-21.97c2.336-2.336,6.229-2.336,8.563,0l11.764,11.764C183.187,53.338,183.187,57.231,180.85,59.567z"/>
		<path fill="#FFFFFF" stroke="#92BFD4" stroke-width="4" stroke-miterlimit="10" d="M90.581,92.004l7.403-12.197l-3.287,3.287
			C92.206,85.586,90.846,88.781,90.581,92.004z"/>
		<line fill="#FFFFFF" stroke="#92BFD4" stroke-width="4" stroke-miterlimit="10" x1="89.42" y1="95.205" x2="78.78" y2="105.845"/>
	</g>
	<circle fill="#FFFFFF" cx="169.001" cy="58.701" r="3.806"/>
	<circle fill="#FFFFFF" cx="161.734" cy="51.436" r="3.807"/>
	<circle fill="#FFFFFF" cx="161.734" cy="65.968" r="3.806"/>
	<path fill="#FFFFFF" d="M151.788,61.383c-1.471-1.471-1.471-3.893,0-5.449c1.469-1.47,3.892-1.47,5.449,0
		c1.471,1.47,1.471,3.892,0,5.449C155.679,62.94,153.256,62.94,151.788,61.383z"/>
	<polygon fill="#ED8222" points="115.37,43.304 105.509,43.304 105.509,33.444 96.946,33.444 96.946,43.304 87.085,43.304 
		87.085,51.954 96.946,51.954 96.946,61.729 105.509,61.729 105.509,51.954 115.37,51.954 	"/>
	<polygon fill="#ED8222" points="69.526,42.267 62.779,42.267 62.779,35.52 56.897,35.52 56.897,42.267 50.15,42.267 50.15,48.148 
		56.897,48.148 56.897,54.896 62.779,54.896 62.779,48.148 69.526,48.148 	"/>
	<polygon fill="#ED8222" points="88.815,19.431 83.885,19.431 83.885,14.5 79.56,14.5 79.56,19.431 74.629,19.431 74.629,23.755 
		79.56,23.755 79.56,28.687 83.885,28.687 83.885,23.755 88.815,23.755 	"/>
</g>
<g id="Layer_2">
</g>
</svg>
