<?xml version="1.0" encoding="utf-8"?>
<!-- Generator: Adobe Illustrator 16.0.0, SVG Export Plug-In . SVG Version: 6.00 Build 0)  -->
<!DOCTYPE svg PUBLIC "-//W3C//DTD SVG 1.1//EN" "http://www.w3.org/Graphics/SVG/1.1/DTD/svg11.dtd">
<svg version="1.1" id="Layer_1" xmlns="http://www.w3.org/2000/svg" xmlns:xlink="http://www.w3.org/1999/xlink" x="0px" y="0px"
	 width="150px" height="150px" viewBox="22.5 22.2 150 150" enable-background="new 22.5 22.2 150 150" xml:space="preserve">
<path fill="none" stroke="#ED8223" stroke-width="2" stroke-miterlimit="10" d="M131.364,163.769v5.615H64.046v-5.615
	c0-3.112,2.504-5.616,5.616-5.616h11.308c0.303-6.982,4.856-12.826,11.156-15.104V77.251c-2.96-1.897-4.933-5.161-4.933-8.879
	h21.098c0,3.794-1.974,7.058-4.934,8.879v65.799c6.3,2.277,10.853,8.121,11.157,15.104h11.308
	C128.859,158.153,131.364,160.657,131.364,163.769z"/>
<g>
	<path fill="none" stroke="#ED8223" stroke-width="2" stroke-miterlimit="10" d="M170.601,113.301
		c-4.099,11.611-15.104,19.96-28.081,19.96c-12.977,0-23.981-8.349-28.08-19.96h6.451l18.973-50.242
		c0.835-2.201,4.402-2.201,5.237,0l18.974,50.242H170.601z M158.154,113.301l-15.559-41.286l-15.634,41.286H158.154z"/>
</g>
<path fill="none" stroke="#ED8223" stroke-width="2" stroke-miterlimit="10" d="M52.814,57.215c2.581,0,4.629-1.669,5.312-4.022
	c1.821-0.684,3.795-1.67,5.692-2.656c4.326-2.201,9.184-4.63,14.192-4.63c4.857,0,7.893,2.201,9.638,4.174
	c-0.075,0.456-0.151,0.987-0.151,1.442c0,5.617,4.554,10.17,10.169,10.17c5.616,0,10.17-4.554,10.17-10.17
	c0-0.531-0.077-0.986-0.151-1.442c1.745-1.897,4.781-4.174,9.638-4.174c5.085,0,9.942,2.429,14.192,4.63
	c1.973,0.986,3.87,1.973,5.692,2.656c0.683,2.277,2.807,4.022,5.312,4.022c3.112,0,5.692-2.504,5.692-5.692
	s-2.505-5.691-5.692-5.691c-1.593,0-3.035,0.683-4.098,1.821c-1.366-0.607-2.884-1.367-4.401-2.125
	c-4.858-2.428-10.322-5.236-16.697-5.236c-5.616,0-9.486,2.125-12.144,4.402c-1.214-1.291-2.731-2.277-4.4-2.808
	c2.124-1.139,3.565-3.264,3.565-5.768c0-3.643-6.678-12.295-6.678-12.295s-6.679,8.576-6.679,12.295
	c0,2.504,1.442,4.629,3.567,5.768c-1.746,0.531-3.263,1.518-4.402,2.808c-2.656-2.277-6.527-4.402-12.143-4.402
	c-6.375,0.076-11.839,2.808-16.696,5.236c-1.518,0.759-3.036,1.518-4.402,2.125c-1.062-1.063-2.504-1.746-4.098-1.746
	c-3.112,0-5.692,2.505-5.692,5.692C47.122,54.786,49.627,57.215,52.814,57.215z"/>
<g>
	<path fill="none" stroke="#ED8223" stroke-width="2" stroke-miterlimit="10" d="M52.814,133.183
		c-12.978,0-23.906-8.348-28.081-19.96h6.451l18.973-50.241c0.835-2.2,4.402-2.2,5.237,0l18.973,50.241h6.451
		C76.72,124.836,65.792,133.183,52.814,133.183z M68.372,113.301L52.814,72.014L37.18,113.301H68.372z"/>
</g>
</svg>
