<?xml version="1.0" encoding="utf-8"?>
<!-- Generator: Adobe Illustrator 16.0.0, SVG Export Plug-In . SVG Version: 6.00 Build 0)  -->
<!DOCTYPE svg PUBLIC "-//W3C//DTD SVG 1.1//EN" "http://www.w3.org/Graphics/SVG/1.1/DTD/svg11.dtd">
<svg version="1.1" id="knowledge" xmlns="http://www.w3.org/2000/svg" xmlns:xlink="http://www.w3.org/1999/xlink" x="0px" y="0px"
	 width="150px" height="150px" viewBox="5.65 18.3 150 150" enable-background="new 5.65 18.3 150 150" xml:space="preserve">
<path fill="none" stroke="#ED8223" stroke-width="2" stroke-miterlimit="10" d="M54.089,78.748
	c-2.173,0.544-4.423-0.853-4.967-3.104c-0.543-2.249,0.776-4.5,2.949-5.043c2.173-0.543,4.423,0.854,4.967,3.104
	C57.582,75.955,56.262,78.206,54.089,78.748z"/>
<path fill="none" stroke="#ED8223" stroke-width="2" stroke-miterlimit="10" d="M90.021,53.061c-4.89,0-8.848,3.88-8.848,8.614
	c0,4.734,3.958,8.615,8.848,8.615c4.811,0,8.847-3.88,8.847-8.615C98.791,56.941,94.832,53.061,90.021,53.061z"/>
<path fill="none" stroke="#ED8223" stroke-width="2" stroke-miterlimit="10" d="M144.887,101.952l-0.853-2.948l-0.932-2.872
	l-1.086-2.638l-1.009-2.639l-1.011-2.561l-0.93-2.561l-0.776-2.638l-0.622-2.639l0.156-1.242l0.543-1.165l0.543-1.242l0.156-1.165
	l-0.466-2.328l-0.621-2.328l-0.621-2.329l-0.776-2.25l-0.775-2.328l-0.775-2.25l-0.854-2.329l-0.932-2.25l-0.853-1.708l-1.088-2.172
	l-1.009-2.096l3.26-2.018l-1.163-1.94l-1.32-1.94l-1.241-1.862l-1.32-1.785l-1.24-1.475l-1.243-1.396l-1.241-1.32l-1.318-1.241
	l-1.319-1.242l2.948-1.164l-1.553-1.009l-1.474-1.087l-1.552-0.931l-1.553-0.932l-1.707-0.854l-1.631-0.776l-1.707-0.776
	l-1.784-0.698l-1.785-0.699l-1.785-0.621l-2.172-0.699l-2.097-0.542l-2.094-0.622l-2.175-0.465l-2.249-0.465l-2.174-0.388
	l-2.172-0.234l-2.251-0.233l-2.174-0.155l-2.172-0.077l-2.174-0.078l-2.25,0.078l-2.251,0.077l-2.173,0.155l-2.173,0.233
	l-2.173,0.311l-2.25,0.388l-2.25,0.466l-2.251,0.466l-2.25,0.465l-2.25,0.699l-2.25,0.621l-2.25,0.699l-2.173,0.775l-2.172,0.854
	l-2.095,1.009l-2.173,0.931l-2.018,1.087l-2.018,1.242l-1.94,1.241l-1.863,1.32l-1.785,1.396l-1.629,1.397l-1.552,1.474
	l-1.475,1.553l-1.397,1.63l-1.319,1.785l-1.319,1.708l-1.242,1.862l-1.164,1.863l-1.086,1.94l-1.008,1.94l-0.854,2.017l-0.854,2.018
	l-0.698,2.095l-0.621,2.018l-0.543,2.173l-0.388,2.096l-0.621,4.345l-0.233,4.347l0.078,4.346l0.387,4.268l0.699,4.268l1.164,4.191
	l1.397,4.036l10.709,17.307c18.16,18.625,17.306,37.328,17.306,37.328l0.078,3.646l0.155,11.331h61.696l0.31-1.165v-3.646
	l0.156-3.647l0.311-8.071l0.388-4.112l0.233-1.01l0.388-0.775l0.388-0.698l0.543-0.622l0.776-0.387l0.854-0.311l0.932-0.311
	l1.009-0.155l1.32-0.156l1.24-0.077h0.311l1.242,0.155l1.163,0.078l1.166,0.155l1.086,0.077l1.319,0.155l1.241,0.155l-3.027,0.077
	l1.32,0.156l1.318,0.076l1.475,0.078l0.854-0.078l0.854-0.232l0.931-0.388l0.854-0.466l0.854-0.543l0.699-0.699l0.62-0.697
	l0.544-0.776l0.311-1.552l-0.155-1.708l-0.311-1.707v-1.63l0.233-0.698l0.311-0.62l0.31-0.699l0.467-0.544l0.464-0.62l0.312-0.621
	l0.311-0.62l0.077-0.699l-0.077-0.775l-0.155-0.698l-0.233-0.776l-0.388-0.699l-0.544-0.62l-0.542-0.621l-0.622-0.466l-0.775-0.544
	l0.854-0.388l0.776-0.465l0.776-0.544l0.543-0.543l0.465-0.62l0.312-0.698l0.154-0.622l-0.154-0.698l-0.776-2.483l-0.466-2.251
	l-0.31-2.094v-2.096l1.24-0.467l1.087-0.466l0.931-0.543l0.776-0.543l0.621-0.621l0.311-0.62l0.232-0.699L144.887,101.952z"/>
<g id="gears">
	<path id="small-gear" fill="none" stroke="#ED8223" stroke-width="2" stroke-miterlimit="10" d="M64.799,80.301l-1.475,2.483
		c-0.078,0.155-3.803-0.62-3.803-0.62l-1.397,1.008c0,0-0.466,3.803-0.699,3.88l-2.716,0.699c-0.155,0-2.328-3.182-2.328-3.182
		l-1.708-0.232c0,0-3.027,2.328-3.182,2.172l-2.405-1.474c-0.155-0.077,0.543-3.879,0.543-3.879l-1.009-1.397
		c0,0-3.725-0.543-3.802-0.698l-0.699-2.794c-0.077-0.233,3.027-2.328,3.027-2.328l0.232-1.708c0,0-2.328-3.104-2.25-3.26
		l1.475-2.484c0.077-0.155,3.802,0.622,3.802,0.622l1.397-1.01c0,0,0.466-3.802,0.699-3.88l2.716-0.698
		c0.233-0.077,2.328,3.182,2.328,3.182l1.707,0.233c0,0,3.027-2.329,3.182-2.25l2.405,1.474c0.156,0.078-0.543,3.88-0.543,3.88
		l1.009,1.396c0,0,3.725,0.543,3.803,0.699l0.698,2.793c0.078,0.156-3.026,2.328-3.026,2.328l-0.233,1.708
		C62.548,77.119,64.876,80.223,64.799,80.301z"/>
	<path id="big-gear" fill="none" stroke="#ED8223" stroke-width="2" stroke-miterlimit="10" d="M117.493,64.702L117.493,64.702
		c0,0.388-7.527,3.105-7.527,3.105l-1.397,3.259c0,0,3.26,7.295,2.949,7.528l-4.269,4.19c-0.311,0.311-7.604-3.026-7.604-3.026
		l-3.337,1.397c0,0-2.949,7.373-3.415,7.373h-6.053c-0.389,0-3.183-7.373-3.183-7.373l-3.414-1.397c0,0-7.373,3.182-7.683,2.871
		l-4.191-4.19c-0.311-0.311,3.104-7.45,3.104-7.45l-1.397-3.259c0,0-7.528-2.95-7.528-3.338v-5.897c0-0.388,7.528-3.104,7.528-3.104
		l1.397-3.26c0,0-3.26-7.294-2.949-7.528l4.268-4.19c0.311-0.311,7.606,3.026,7.606,3.026l3.337-1.319c0,0,2.949-7.373,3.337-7.373
		h6.053c0.389,0,3.183,7.373,3.183,7.373l3.337,1.319c0,0,7.45-3.182,7.684-2.871l4.267,4.19c0.312,0.311-3.104,7.451-3.104,7.451
		l1.397,3.259c0,0,7.526,2.871,7.526,3.259L117.493,64.702L117.493,64.702z"/>
</g>
</svg>
