<?xml version="1.0" encoding="utf-8"?>
<!-- Generator: Adobe Illustrator 16.0.0, SVG Export Plug-In . SVG Version: 6.00 Build 0)  -->
<!DOCTYPE svg PUBLIC "-//W3C//DTD SVG 1.1//EN" "http://www.w3.org/Graphics/SVG/1.1/DTD/svg11.dtd">
<svg version="1.1" id="Layer_1" xmlns="http://www.w3.org/2000/svg" xmlns:xlink="http://www.w3.org/1999/xlink" x="0px" y="0px"
	 width="150px" height="150px" viewBox="-21.9 -30.6 150 150" enable-background="new -21.9 -30.6 150 150" xml:space="preserve">
<g>
	<path fill="none" d="M80.934,6.567c0-2.253-1.689-3.94-3.94-3.94c-2.253,0-3.94,1.688-3.94,3.94v8.302h7.881V6.567z"/>
	<path fill="none" d="M69.112,13.041c0-1.69-0.844-2.674-1.688-3.238l-0.562-0.422V0.516c0-2.251-1.689-3.941-3.941-3.941
		s-3.939,1.69-3.939,3.941v8.583h-3.94V0.516c0-2.251-1.688-3.941-3.94-3.941s-3.94,1.69-3.94,3.941v8.303l-3.941,1.97V-2.862
		c-0.141-2.392-1.829-4.082-4.081-4.082s-3.94,1.69-3.94,3.942v17.871h33.634C68.971,14.307,69.112,13.745,69.112,13.041z"/>
	<path fill="none" d="M50.396,26.831c-0.563,0.845-0.986,1.69-1.267,2.814c-0.422,2.534,0.422,5.489,2.393,7.74
		c0.141,0.142,0.281,0.424,0.562,0.704c0.141,0.141,0.282,0.283,0.422,0.423l2.533,2.533h-4.082l-0.281-0.282
		c-5.067-3.095-8.585-6.473-10.695-10.132l-0.423-0.845l2.252-2.815H28.583l-2.533,2.673c-3.519,3.659-3.941,9.992-0.845,14.073
		l6.614,9.006c2.534,3.238,4.645,8.869,4.645,12.242c0,4.223,4.222,7.742,9.429,7.742h21.531c5.067,0,9.429-4.363,9.429-9.43v-2.672
		c0-4.084,2.393-10.133,3.94-14.215l0.281-0.562c0.704-1.828,1.126-3.659,1.268-5.066c0.14-1.83-0.142-4.222-0.985-6.473
		l-0.141-0.282v-7.178H50.396z"/>
	<path fill="none" d="M71.364,80.167H39.419c-3.659,0-6.615,2.955-6.615,6.613v10.838c0,3.658,2.956,6.611,6.615,6.611h31.945
		c3.659,0,6.614-3.094,6.614-6.611V86.781C78.12,83.123,75.165,80.167,71.364,80.167z"/>
	<path fill="none" d="M42.937,29.928c0.984,1.407,2.251,2.955,3.799,4.362c-0.422-1.689-0.563-3.518-0.281-5.208
		c0.14-0.845,0.422-1.549,0.704-2.252H45.47L42.937,29.928z"/>
	<path fill="#ED8222" d="M123.152,10.93c-1.125,0-1.97,1.124-1.97,2.531v14.777c0,1.407,0.845,2.534,1.97,2.534
		c1.126,0,1.97-1.127,1.97-2.534V13.461C125.122,12.054,124.278,10.93,123.152,10.93z"/>
	<path fill="#ED8222" d="M-15.888,10.93c-1.125,0-1.97,1.124-1.97,2.531c0,3.801,0,10.978,0,14.777c0,1.407,0.845,2.394,1.97,2.534
		c1.126,0,1.971-1.127,1.971-2.534c0-3.799,0-10.976,0-14.777C-14.058,12.054-14.902,10.93-15.888,10.93z"/>
	<path fill="#ED8222" d="M70.097,17.825c-0.562,0.562-1.267,1.125-1.97,1.407c0.703,0.142,1.407,0.282,1.97,0.422V17.825z"/>
	<path fill="#ED8222" d="M57.291,19.936h-4.644c-0.985,0-2.673,0.845-3.237,1.549l-4.081,5.346h1.689
		c0.845-1.97,2.392-3.519,4.504-4.502C53.351,21.202,55.321,20.498,57.291,19.936z"/>
	<path fill="#ED8222" d="M97.961-11.306c-3.659,0-6.474,3.378-6.474,7.459v18.857h-7.599v11.961h7.599V45.83
		c0,4.082,2.955,7.459,6.474,7.459c3.66,0,6.614-3.377,6.614-7.459V-3.707C104.576-8.068,101.622-11.306,97.961-11.306z"/>
	<path fill="#ED8222" d="M32.242,14.869h-17.45V-3.988c0-4.08-2.956-7.458-6.474-7.458c-3.659,0-6.473,3.378-6.473,7.458
		c0,12.384,0,37.152,0,49.537c0,4.082,2.955,7.457,6.473,7.457c3.66,0,6.474-3.375,6.474-7.457V26.831h9.71l7.74-8.302V14.869z"/>
	<path fill="#ED8222" d="M113.16-1.455h-0.703c-2.673,0-4.926,2.251-4.926,4.925v34.76c0,2.673,2.253,4.925,4.926,4.925h0.703
		c2.675,0,4.926-2.252,4.926-4.925c0-8.585,0-26.176,0-34.76C118.085,0.796,115.974-1.455,113.16-1.455z"/>
	<path fill="#ED8222" d="M-6.037-1.455H-6.74c-2.674,0-4.926,2.251-4.926,4.925v34.76c0,2.673,2.252,4.925,4.926,4.925h0.703
		c2.674,0,4.926-2.252,4.926-4.925V3.47C-1.111,0.796-3.363-1.455-6.037-1.455z"/>
	<path fill="#FFFFFF" d="M83.889,6.567c0-3.8-2.955-6.895-6.896-6.895c-3.8,0-6.896,2.955-6.896,6.895v1.689
		c-0.141-0.14-0.141-0.14-0.281-0.282V0.516c0-3.8-2.955-6.896-6.896-6.896c-2.532,0-4.783,1.267-5.91,3.378
		c-1.126-1.971-3.378-3.378-5.91-3.378c-2.111,0-3.94,0.844-5.066,2.251c-0.704-3.376-3.519-5.77-6.896-5.77
		c-3.8,0-6.896,2.955-6.896,6.896v17.871v3.66l-7.74,8.302l-0.563,0.703c-4.503,4.786-5.066,12.525-1.126,17.731l6.615,9.008
		c2.252,2.955,4.081,8.023,4.081,10.414c0,5.908,5.488,10.555,12.244,10.555h21.531c6.755,0,12.243-5.488,12.243-12.242v-2.393
		c0-3.52,2.252-9.289,3.658-13.088l0.282-0.562c0.844-2.112,1.268-4.082,1.407-5.77c0.141-2.252-0.14-4.926-0.984-7.459v-6.896
		V14.869V6.567L83.889,6.567z M81.074,34.291c0.704,2.251,1.126,4.644,0.985,6.473c-0.14,1.407-0.563,3.095-1.267,5.066
		l-0.281,0.562c-1.548,3.941-3.941,9.992-3.941,14.215V63c0,5.066-4.361,9.428-9.428,9.428H45.61c-5.207,0-9.429-3.518-9.429-7.74
		c0-3.236-2.252-9.006-4.644-12.242l-6.615-9.007c-2.956-4.081-2.674-10.414,0.845-14.072l2.533-2.674l6.755-7.037v-4.926V-3.143
		c0-2.253,1.688-3.942,3.94-3.942c2.251,0,3.941,1.831,4.081,4.082v13.649l3.94-1.969V0.375c0-2.252,1.689-3.942,3.94-3.942
		c2.252,0,3.94,1.689,3.94,3.942v8.583h3.941V0.375c0-2.252,1.688-3.942,3.939-3.942c2.252,0,3.941,1.689,3.941,3.942v8.864
		l0.562,0.424c0.703,0.563,1.688,1.547,1.688,3.236c0,0.704-0.141,1.266-0.422,1.829c-0.704,1.267-1.97,2.111-3.519,2.111H52.506
		c-1.97,0-4.504,1.267-5.489,2.814l-5.488,7.037l-2.252,2.814l0.422,0.843c1.97,3.66,5.629,7.037,10.696,10.134l0.282,0.281h4.08
		l-2.532-2.533c-0.141-0.141-0.282-0.281-0.422-0.421c-0.141-0.282-0.422-0.564-0.563-0.704c-1.83-2.251-2.814-5.208-2.393-7.74
		c0.282-1.127,0.562-1.971,1.267-2.814c0.563-0.844,1.408-1.408,2.393-1.971c3.519-1.829,7.458-2.955,11.399-2.955
		c0.281,0,0.562,0,0.984,0c2.393,0,4.363,0.563,5.911,1.125l1.97,0.704v-8.866V6.285c0-2.251,1.688-3.939,3.94-3.939
		s3.941,1.688,3.941,3.939v8.304v11.962v7.316L81.074,34.291z"/>
	<path fill="#FFFFFF" d="M71.364,77.214H39.419c-5.349,0-9.57,4.359-9.57,9.566v10.838c0,5.346,4.363,9.568,9.57,9.568h31.945
		c5.206,0,9.57-4.363,9.57-9.568V86.781C80.934,81.574,76.711,77.214,71.364,77.214z M78.12,97.757c0,3.66-3.097,6.613-6.615,6.613
		H39.559c-3.658,0-6.614-2.953-6.614-6.613V86.923c0-3.66,2.956-6.615,6.614-6.615h31.945c3.66,0,6.615,2.955,6.615,6.615V97.757z"
		/>
</g>
</svg>
