<?xml version="1.0" encoding="utf-8"?>
<!-- Generator: Adobe Illustrator 16.0.0, SVG Export Plug-In . SVG Version: 6.00 Build 0)  -->
<!DOCTYPE svg PUBLIC "-//W3C//DTD SVG 1.1//EN" "http://www.w3.org/Graphics/SVG/1.1/DTD/svg11.dtd">
<svg version="1.1" id="Layer_1" xmlns="http://www.w3.org/2000/svg" xmlns:xlink="http://www.w3.org/1999/xlink" x="0px" y="0px"
	 width="150px" height="150px" viewBox="26.8 19.5 150 150" enable-background="new 26.8 19.5 150 150" xml:space="preserve">
<path fill="none" stroke="#ED8223" stroke-width="2" stroke-miterlimit="10" d="M173.377,82.316
	c-1.23-0.868-2.966-0.507-3.762,0.795c-1.446,2.169-3.398,3.037-5.062,3.47c0-3.181-1.591-6.508-4.411-9.328
	c-2.676-2.676-6.581-3.254-9.329-1.302c-2.024,1.446-3.616,4.701-1.446,9.04c1.374,2.675,3.833,4.844,6.87,6.075
	c-0.578,0.434-1.229,0.795-1.952,1.157c-1.664,0.795-3.326,1.302-4.918,1.59c-3.905-8.027-11.063-14.896-20.177-19.814
	c-3.326,7.81-11.136,13.306-20.175,13.306c-11.571,0-21.118-9.111-21.841-20.537c-1.157,0.144-2.242,0.217-3.326,0.361
	c-7.015-4.412-19.67-9.835-32.398-8.967c0.579,5.279,3.833,12.077,8.027,16.994c-8.1,4.99-13.307,11.861-15.982,19.742
	c-3.109,1.374-6.436,2.242-10.124,2.459c-2.748,0.217-4.772,2.531-4.556,5.279c0.506,7.015,2.604,18.946,10.775,22.129
	c1.518,0.579,3.977,0.94,6.942,1.156c3.471,5.714,8.606,10.704,14.897,14.682c-1.084,5.278-2.387,10.63-3.977,15.981
	c-0.723,2.313,1.084,4.7,3.471,4.7h15.332c1.518,0,2.893-0.94,3.398-2.387c1.229-3.254,2.243-6.581,3.11-9.979
	c4.557,0.938,9.329,1.374,14.246,1.374c5.713,0,11.282-0.651,16.416-1.882c-0.65,2.677-1.374,5.424-2.241,8.173
	c-0.723,2.313,1.085,4.7,3.471,4.7h15.332c1.518,0,2.893-0.94,3.398-2.387c2.748-7.376,4.556-15.113,5.641-23.142
	c8.389-7.375,13.522-16.921,13.522-27.406c0-3.183-0.505-6.364-1.374-9.329c1.736-0.361,3.544-1.014,5.352-1.881
	c2.965-1.445,4.845-3.182,6.003-4.845c4.7-0.072,8.966-2.314,11.497-6.147C174.967,84.848,174.606,83.184,173.377,82.316z"/>
<circle fill="none" stroke="#ED8223" stroke-width="2" stroke-miterlimit="10" cx="64.179" cy="90.993" r="4.555"/>
<path fill="none" stroke="#ED8223" stroke-width="2" stroke-miterlimit="10" d="M154.213,82.46c-0.579-1.085-0.579-1.88-0.218-2.097
	c0.145-0.073,0.29-0.145,0.506-0.145c0.436,0,1.085,0.217,1.736,0.868c1.663,1.664,2.676,3.543,2.748,5.134
	C156.817,85.497,155.08,84.125,154.213,82.46z"/>
<g>
	<circle fill="none" stroke="#ED8223" stroke-width="2" stroke-miterlimit="10" cx="108.87" cy="65.466" r="18.224"/>
	<path fill="none" stroke="#ED8223" stroke-width="2" stroke-miterlimit="10" d="M114.728,61.706
		c-0.939,0.289-2.024-0.217-2.314-1.157c-0.289-0.868-1.374-1.952-3.543-1.952c-1.736,0-2.747,1.157-2.821,2.242
		c-0.144,1.374,1.085,2.458,3.183,2.965c4.918,1.013,6.364,4.339,6.075,6.87c-0.29,2.531-2.17,4.556-4.629,5.207v1.519
		c0,1.013-0.795,1.808-1.808,1.808s-1.809-0.795-1.809-1.808v-1.446c-2.893-0.579-4.628-2.531-5.206-4.266
		c-0.289-0.94,0.216-2.025,1.157-2.314c0.94-0.29,2.025,0.217,2.313,1.157c0.289,0.868,1.374,1.953,3.544,1.953
		c1.735,0,2.748-1.157,2.82-2.241c0.144-1.375-1.085-2.459-3.183-2.966c-4.916-1.012-6.362-4.338-6.074-6.87
		c0.289-2.531,2.169-4.556,4.628-5.279v-1.518c0-1.013,0.796-1.808,1.809-1.808s1.808,0.795,1.808,1.808v1.446
		c2.893,0.578,4.629,2.531,5.208,4.267C116.247,60.332,115.668,61.417,114.728,61.706z"/>
</g>
<g>
	<circle fill="none" stroke="#ED8223" stroke-width="2" stroke-miterlimit="10" cx="139.242" cy="47.17" r="12.583"/>
	<path fill="none" stroke="#ED8223" stroke-width="2" stroke-miterlimit="10" d="M143.292,44.639
		c-0.649,0.217-1.373-0.145-1.59-0.795c-0.218-0.651-0.941-1.375-2.46-1.375c-1.156,0-1.88,0.795-1.951,1.519
		c-0.072,0.94,0.723,1.736,2.241,2.025c3.398,0.723,4.339,2.964,4.195,4.772c-0.218,1.736-1.446,3.11-3.183,3.616v1.013
		c0,0.723-0.579,1.229-1.23,1.229c-0.723,0-1.229-0.579-1.229-1.229v-1.013c-2.025-0.434-3.183-1.735-3.544-2.893
		c-0.216-0.651,0.146-1.374,0.795-1.591c0.651-0.217,1.375,0.145,1.592,0.796c0.217,0.65,0.939,1.374,2.459,1.374
		c1.157,0,1.88-0.795,1.952-1.519c0.072-0.94-0.723-1.735-2.241-2.025c-3.399-0.723-4.339-2.965-4.195-4.773
		c0.146-1.735,1.446-3.11,3.183-3.616v-1.012c0-0.723,0.579-1.229,1.229-1.229c0.724,0,1.23,0.578,1.23,1.229v1.012
		c2.024,0.434,3.183,1.736,3.544,2.893C144.305,43.699,143.944,44.422,143.292,44.639z"/>
</g>
<g>
	<circle fill="none" stroke="#ED8223" stroke-width="2" stroke-miterlimit="10" cx="88.332" cy="37.552" r="10.052"/>
	<path fill="none" stroke="#ED8223" stroke-width="2" stroke-miterlimit="10" d="M91.514,35.527
		c-0.505,0.144-1.084-0.073-1.301-0.651c-0.146-0.506-0.796-1.084-1.953-1.084c-0.939,0-1.519,0.651-1.591,1.229
		c-0.072,0.795,0.578,1.374,1.736,1.591c2.675,0.579,3.47,2.386,3.326,3.76c-0.146,1.374-1.157,2.531-2.531,2.893v0.868
		c0,0.578-0.434,1.012-1.013,1.012s-0.867-0.434-0.867-0.94V43.41c-1.592-0.289-2.531-1.374-2.821-2.314
		c-0.146-0.506,0.072-1.084,0.651-1.301c0.505-0.145,1.084,0.072,1.301,0.65c0.146,0.506,0.795,1.085,1.954,1.085
		c0.939,0,1.518-0.651,1.59-1.229c0.072-0.795-0.579-1.374-1.736-1.591c-2.675-0.579-3.471-2.387-3.327-3.761
		c0.144-1.374,1.157-2.531,2.531-2.893v-0.868c0-0.579,0.434-1.013,1.013-1.013c0.578,0,1.013,0.434,1.013,1.013v0.795
		c1.59,0.29,2.531,1.375,2.819,2.314C92.383,34.804,92.093,35.31,91.514,35.527z"/>
</g>
</svg>
